<svg width="825" height="825" xmlns="http://www.w3.org/2000/svg" xmlns:xlink="http://www.w3.org/1999/xlink" xml:space="preserve" overflow="hidden"><g transform="translate(-1788 -825)"><path d="M1846.96 1367.91C1868.74 1376.42 1893.02 1375.8 1914.34 1366.19 1941.97 1405.95 1980.48 1436.89 2025.26 1455.31 2034.63 1459.22 2044.68 1461.25 2054.84 1461.27 2071.93 1461.24 2088.5 1455.39 2101.83 1444.7 2123.36 1427.87 2133.91 1400.58 2129.27 1373.65 2120.77 1321.67 2100.06 1298.79 2078 1275.22 2096.98 1263.84 2110.91 1245.64 2116.92 1224.33 2118.93 1216.91 2115.57 1209.08 2108.8 1205.43L2105 1203.44C2095.44 1197.47 2084.85 1193.33 2073.78 1191.25 2058.69 1190.84 2044.01 1196.17 2032.7 1206.17 2026.92 1190.63 2023.94 1174.2 2023.89 1157.62 2023.87 1112.6 2041.87 1069.45 2073.89 1037.8 2076.28 1035.47 2080 1035.19 2082.71 1037.15 2104.74 1051.65 2131.93 1056.03 2157.41 1049.18 2168.11 1046.67 2178.36 1042.49 2187.76 1036.81L2193.78 1033.18 2191.42 1026.57C2184.79 1009.74 2171.01 996.723 2153.83 991.057 2149.37 989.41 2145.88 985.877 2144.28 981.406 2142.72 976.978 2143.19 972.085 2145.59 968.043 2155.37 952.936 2157.89 934.25 2152.46 917.091L2150.17 910.473 2143.21 911.393C2132.31 912.838 2121.7 915.985 2111.78 920.717 2087.46 931.287 2068.93 951.909 2061.01 977.221 2059.74 982.091 2055.97 985.918 2051.12 987.276 1944.67 1018.07 1870.98 1115 1869.8 1225.81 1869.79 1247.86 1872.75 1269.81 1878.6 1291.07 1873.51 1292.56 1868.65 1294.69 1864.11 1297.42 1857.15 1301.59 1851.13 1307.17 1846.44 1313.8 1841.33 1324.21 1838.28 1335.5 1837.44 1347.07L1837.2 1350.24C1835.86 1357.7 1839.93 1365.08 1846.96 1367.91ZM1854.49 1349.16C1855.48 1340.5 1857.48 1331.99 1860.44 1323.79 1863.77 1319.07 1868.05 1315.09 1873 1312.11 1878.45 1308.89 1884.49 1306.79 1890.76 1305.94L1900.76 1304.47 1897.7 1294.84C1890.62 1272.5 1887.02 1249.2 1887.03 1225.77 1888.2 1122.6 1956.84 1032.38 2055.96 1003.75 2066.63 1000.72 2074.89 992.27 2077.67 981.535 2084.29 961.14 2099.43 944.614 2119.17 936.229 2125.15 933.378 2131.43 931.204 2137.89 929.749 2138.9 940.097 2136.4 950.482 2130.8 959.243 2121.49 975.018 2126.72 995.358 2142.5 1004.67 2144.17 1005.67 2145.94 1006.51 2147.76 1007.19 2157.7 1010.55 2166.25 1017.12 2172.06 1025.86 2166.12 1028.76 2159.88 1030.98 2153.45 1032.5 2132.86 1038.21 2110.82 1034.88 2092.85 1023.33 2083.29 1016.43 2070.16 1017.43 2061.76 1025.7 2026.5 1060.56 2006.67 1108.1 2006.7 1157.69 2006.82 1180.74 2011.92 1203.49 2021.64 1224.39L2021.64 1224.39C2025.25 1233.74 2029.84 1242.69 2035.31 1251.1 2037.88 1255.09 2043.2 1256.25 2047.2 1253.69 2051.2 1251.12 2052.36 1245.8 2049.79 1241.8 2045.98 1235.85 2042.62 1229.63 2039.74 1223.19 2048.24 1213.61 2060.51 1208.23 2073.31 1208.46 2081.67 1211 2089.71 1214.48 2097.28 1218.84L2100.16 1220.35C2094.3 1240.38 2079.76 1256.73 2060.54 1264.88L2049.37 1269.66 2064.17 1285.62C2085.81 1308.7 2104.49 1328.59 2112.29 1376.45 2115.86 1397.22 2107.73 1418.28 2091.13 1431.25 2074.38 1444.7 2051.6 1447.85 2031.83 1439.45 1987.82 1421.37 1950.35 1390.32 1924.41 1350.43L1924.32 1350.31C1918.72 1341.98 1913.7 1333.26 1909.32 1324.23 1907.24 1319.96 1902.09 1318.18 1897.82 1320.26 1893.55 1322.34 1891.77 1327.48 1893.85 1331.76 1897.18 1338.63 1900.92 1345.15 1904.82 1351.52 1888.65 1358.12 1870.58 1358.4 1854.21 1352.3Z" fill="#D86ECC"/><path d="M2248.2 1492.66C2252.65 1494.32 2256.14 1497.87 2257.72 1502.35 2259.28 1506.78 2258.81 1511.67 2256.41 1515.71 2246.62 1530.82 2244.1 1549.5 2249.54 1566.66L2251.82 1573.27 2258.77 1572.36C2269.67 1570.92 2280.28 1567.77 2290.2 1563.03 2314.53 1552.46 2333.05 1531.85 2340.97 1506.54 2342.25 1501.66 2346.03 1497.83 2350.89 1496.47 2457.35 1465.69 2531.04 1368.75 2532.22 1257.94 2532.23 1235.89 2529.28 1213.94 2523.43 1192.68 2528.51 1191.19 2533.38 1189.06 2537.92 1186.33 2544.9 1182.15 2550.93 1176.55 2555.63 1169.9 2560.71 1159.49 2563.76 1148.21 2564.63 1136.65L2564.88 1133.46C2566.22 1126 2562.14 1118.62 2555.1 1115.8 2533.34 1107.28 2509.05 1107.9 2487.75 1117.52 2460.11 1077.76 2421.59 1046.82 2376.81 1028.41 2351.27 1017.55 2321.83 1021.61 2300.19 1038.98 2278.64 1055.8 2268.07 1083.09 2272.69 1110.03 2281.2 1162.01 2301.91 1184.88 2323.97 1208.46 2304.98 1219.83 2291.06 1238.04 2285.05 1259.35 2283.05 1266.77 2286.41 1274.59 2293.17 1278.25L2296.92 1280.21C2306.49 1286.2 2317.1 1290.34 2328.19 1292.42 2343.27 1292.74 2357.91 1287.42 2369.27 1277.51 2375.05 1293.05 2378.03 1309.48 2378.08 1326.06 2378.1 1371.08 2360.09 1414.23 2328.07 1445.88 2325.69 1448.22 2321.96 1448.5 2319.27 1446.53 2297.22 1432.03 2270.03 1427.65 2244.55 1434.5 2233.87 1437.03 2223.64 1441.21 2214.25 1446.9L2208.23 1450.53 2210.58 1457.13C2217.22 1473.97 2231 1486.99 2248.2 1492.66ZM2248.54 1451.25C2269.12 1445.54 2291.17 1448.87 2309.14 1460.42 2318.69 1467.33 2331.83 1466.33 2340.23 1458.06 2375.5 1423.2 2395.33 1375.66 2395.29 1326.07 2395.18 1303.02 2390.08 1280.26 2380.36 1259.36L2380.36 1259.36C2376.73 1250.02 2372.15 1241.07 2366.68 1232.67 2364.23 1228.6 2358.95 1227.28 2354.88 1229.73 2350.82 1232.17 2349.5 1237.45 2351.94 1241.52 2352.02 1241.66 2352.11 1241.79 2352.2 1241.92 2356 1247.86 2359.36 1254.08 2362.25 1260.52 2353.68 1270.02 2341.45 1275.39 2328.66 1275.27 2320.3 1272.74 2312.25 1269.25 2304.68 1264.89L2301.81 1263.38C2307.67 1243.34 2322.21 1226.98 2341.44 1218.83L2352.66 1214.06 2337.83 1198.06C2316.2 1174.99 2297.52 1155.09 2289.7 1107.24 2286.13 1086.48 2294.26 1065.43 2310.87 1052.45 2327.62 1039.02 2350.4 1035.87 2370.17 1044.25 2414.17 1062.35 2451.64 1093.39 2477.59 1133.28L2477.7 1133.44C2483.29 1141.76 2488.3 1150.45 2492.69 1159.47 2494.76 1163.74 2499.91 1165.52 2504.18 1163.44 2508.45 1161.37 2510.23 1156.22 2508.16 1151.95 2504.82 1145.07 2501.08 1138.55 2497.19 1132.18 2513.37 1125.58 2531.44 1125.31 2547.81 1131.41L2547.53 1134.56C2546.56 1143.21 2544.57 1151.72 2541.61 1159.92 2538.28 1164.64 2533.99 1168.62 2529.04 1171.59 2523.59 1174.82 2517.56 1176.92 2511.28 1177.77L2501.28 1179.24 2504.33 1188.88C2511.41 1211.21 2515 1234.51 2514.99 1257.94 2513.83 1361.12 2445.17 1451.36 2346.03 1479.98 2335.36 1483 2327.11 1491.46 2324.34 1502.19 2317.7 1522.58 2302.56 1539.11 2282.83 1547.5 2276.85 1550.35 2270.57 1552.53 2264.1 1553.97 2263.1 1543.63 2265.6 1533.24 2271.19 1524.48 2280.5 1508.71 2275.26 1488.38 2259.49 1479.08 2257.81 1478.09 2256.06 1477.25 2254.24 1476.57 2244.29 1473.2 2235.74 1466.63 2229.92 1457.89 2235.86 1454.99 2242.11 1452.77 2248.54 1451.25Z" fill="#D86ECC"/><path d="M2101.02 1023.88C2095.63 1019.58 2088.2 1020.23 2083.5 1025.4 2053.93 1057.7 2037.3 1101.59 2037.28 1147.38 2037.37 1168.75 2041.7 1189.84 2049.96 1209.2 2059.04 1195.86 2073.36 1188.07 2088.52 1188.23 2097.12 1190.47 2105.34 1194.18 2112.88 1199.22L2115.98 1200.98C2118.75 1202.72 2120.13 1206.27 2119.35 1209.67 2113.71 1231.72 2099.26 1249.77 2080.05 1258.72L2080.05 1258.82C2101.87 1284.9 2122.08 1304.38 2130.04 1357.75 2135.28 1393.1 2113.41 1426.41 2081.19 1432.16 2070.25 1434.11 2059.03 1432.65 2048.81 1427.93 2008.77 1409.63 1974.7 1378.5 1951.03 1338.61 1933.02 1349.88 1911.34 1351.6 1892.04 1343.3 1889.19 1341.95 1887.56 1338.63 1888.1 1335.28L1888.64 1331.62C1889.46 1321.94 1891.66 1312.46 1895.16 1303.53 1898.68 1298.04 1903.19 1293.4 1908.41 1289.91 1914.06 1286.23 1920.31 1283.81 1926.8 1282.79 1920.32 1260.34 1917.03 1236.92 1917.05 1213.36 1917.53 1109.74 1980.2 1018.88 2070.95 990.22 2077.75 988.045 2083.01 982.105 2084.8 974.58 2091.18 952.472 2105.98 934.485 2125.38 925.272 2133.39 921.08 2141.95 918.289 2150.75 917 2154.72 931.29 2152.76 946.776 2145.38 959.332 2139.29 970.72 2142.77 985.366 2153.15 992.043 2154.21 992.72 2155.31 993.299 2156.45 993.774 2169.45 998.45 2179.9 1009.19 2185 1023.11 2177.4 1028.16 2169.13 1031.87 2160.49 1034.11 2140.25 1040.22 2118.59 1036.49 2101.02 1023.88Z" fill="#DC248D" fill-rule="evenodd"/><path d="M2530.36 1149.43C2529.54 1159.11 2527.34 1168.59 2523.84 1177.52 2520.33 1183.01 2515.81 1187.65 2510.59 1191.14 2504.95 1194.82 2498.7 1197.24 2492.2 1198.26 2498.69 1220.71 2501.98 1244.13 2501.96 1267.68 2501.45 1371.29 2438.78 1462.14 2348.05 1490.78 2341.24 1492.96 2335.98 1498.9 2334.19 1506.42 2327.81 1528.53 2313.01 1546.52 2293.62 1555.73 2285.6 1559.92 2277.05 1562.71 2268.25 1564 2264.27 1549.69 2266.24 1534.19 2273.64 1521.62 2279.72 1510.26 2276.25 1495.64 2265.89 1488.98 2264.84 1488.3 2263.73 1487.72 2262.58 1487.24 2249.57 1482.56 2239.1 1471.8 2234 1457.85 2241.6 1452.81 2249.86 1449.1 2258.51 1446.86 2278.75 1440.76 2300.42 1444.49 2317.98 1457.12 2323.36 1461.41 2330.79 1460.77 2335.49 1455.61 2365.05 1423.31 2381.68 1379.42 2381.7 1333.64 2381.61 1312.27 2377.29 1291.17 2369.02 1271.82 2359.95 1285.16 2345.63 1292.94 2330.46 1292.79 2321.87 1290.55 2313.65 1286.84 2306.11 1281.8L2303.01 1280.04C2300.24 1278.3 2298.86 1274.75 2299.65 1271.35 2305.28 1249.3 2319.73 1231.25 2338.94 1222.3L2338.94 1222.21C2317.1 1196.13 2296.88 1176.61 2288.94 1123.14 2283.72 1087.83 2305.57 1054.56 2337.75 1048.84 2348.67 1046.89 2359.86 1048.35 2370.06 1053.06 2410.16 1071.35 2444.29 1102.5 2467.98 1142.44 2485.98 1131.17 2507.66 1129.45 2526.96 1137.75 2529.8 1139.1 2531.44 1142.41 2530.9 1145.77Z" fill="#DC248D" fill-rule="evenodd"/></g></svg>