<svg width="71" height="75" viewBox="0 0 71 75" fill="none" xmlns="http://www.w3.org/2000/svg">
<path d="M39.7378 35.0859C39.6639 35.375 39.5825 35.6484 39.5011 35.8672C39.7415 37.2508 39.8599 38.6555 39.8562 40.0625C39.8562 43.4844 39.2275 47.0938 37.6374 48.7578C37.4525 49.4922 37.4821 49.9453 37.9628 50C39.442 50.1797 40.3591 51.8984 40.3591 51.8984C40.9581 53.7969 41.9714 53.2266 41.9714 53.2266C45.3069 52.3984 45.0258 56.7109 44.73 57.3437C44.4342 57.9766 44.9075 57.7812 44.9075 57.7812C46.5863 57.5312 45.7507 53.6719 46.7047 52.7188C47.2675 52.207 47.7002 51.5547 47.962 50.8203C49.4411 51.5234 49.8775 49.4922 49.8775 49.4922C49.8775 49.4922 51.3567 50.2266 51.7413 48.2891C53.4867 39.8906 42.9328 36.0469 39.7378 35.0859Z" fill="#D377ED"/>
<path d="M30.9812 40.0859C30.9753 38.6656 31.0973 37.2477 31.3436 35.8516C31.2696 35.625 31.1957 35.375 31.1291 35.1172C27.8158 36.1328 17.506 39.9766 19.2292 48.3125C19.636 50.25 21.0929 49.5156 21.0929 49.5156C21.0929 49.5156 21.5663 51.5469 23.0084 50.8437C23.2703 51.5781 23.7029 52.2305 24.2657 52.7422C25.2198 53.6953 24.3841 57.5547 26.0629 57.8047C26.0629 57.8047 26.6028 58 26.2404 57.3672C25.878 56.7344 25.6636 52.4219 28.9991 53.25C28.9991 53.25 30.0123 53.8203 30.6114 51.9219C30.6114 51.9219 31.5211 50.2031 33.0076 50.0234C33.4514 49.9766 33.5105 49.586 33.3774 48.961C31.6542 47.3594 30.9812 43.6328 30.9812 40.0859Z" fill="#D377ED"/>
<path d="M41.461 17.2344C41.0787 16.7578 40.4101 16.6789 39.9375 17.0547C37.1936 19.3984 35.9733 24.1641 35.4556 27.3281C34.9305 24.2031 33.7176 19.375 30.9663 17.0547C30.4671 16.6789 29.7749 16.8023 29.4192 17.3297C29.0915 17.8156 29.1618 18.4844 29.5833 18.8828C32.4455 21.3047 33.4588 28.125 33.6067 30.5469C33.3212 31.0187 33.1415 31.5531 33.0815 32.1094C33.0039 33.3016 33.2125 34.4945 33.688 35.5781C33.3707 37.0328 33.2169 38.5226 33.2295 40.0156C33.2295 44.0703 34.2205 47.3594 35.4482 47.3594C36.6759 47.3594 37.667 44.0703 37.667 40.0156C37.6781 38.5359 37.5265 37.0601 37.2158 35.6172C37.7003 34.5219 37.914 33.3156 37.8371 32.1094C37.7809 31.5312 37.593 30.9766 37.2898 30.4922C37.4377 28.0703 38.4509 21.25 41.3131 18.8281C41.7517 18.4211 41.8168 17.7242 41.461 17.2344Z" fill="#D377ED"/>
<path d="M64.7727 23.5703C64.2846 16.2813 46.1056 23.6328 39.5455 30.1016C39.8849 30.9344 40.0491 31.8352 40.0262 32.7422C42.4151 33.4219 50.0698 35.9922 52.9911 41.6406C53.3705 41.7422 53.7603 41.7945 54.1522 41.7969C56.6668 41.7109 58.4271 39.2656 58.4862 36.9219C60.7434 36.268 62.1324 33.875 61.659 31.4531C61.659 31.4531 65.0833 29.5234 63.6041 26.1016C64.4132 25.557 64.8644 24.5789 64.7727 23.5703ZM56.2083 38.9297C55.8459 39.4687 55.2986 39.7109 54.9806 39.4687C54.6626 39.2266 54.6922 38.6016 55.0546 38.0625C55.417 37.5234 55.9642 37.2813 56.2822 37.5313C56.6003 37.7813 56.5707 38.3984 56.2083 38.9297ZM59.4773 33.7813C59.174 34.3516 58.6563 34.6563 58.3161 34.4531C57.9759 34.25 57.9389 33.625 58.2422 33.0547C58.5454 32.4844 59.0631 32.1719 59.4033 32.375C59.7435 32.5781 59.7805 33.2031 59.4773 33.7813ZM62.125 28.3125C61.9327 28.9375 61.4815 29.3438 61.1043 29.2188C60.7272 29.0938 60.5866 28.4844 60.7715 27.8594C60.9564 27.2344 61.415 26.8281 61.7847 26.9531C62.1545 27.0781 62.3099 27.6797 62.125 28.3047V28.3125ZM62.0362 24.6797C61.6442 24.6797 61.2966 24.1484 61.2966 23.4922C61.2966 22.8359 61.6147 22.3047 62.0362 22.3047C62.4578 22.3047 62.7758 22.8359 62.7758 23.4922C62.7758 24.1484 62.4208 24.6719 62.0362 24.6719V24.6797Z" fill="#D377ED"/>
<path d="M7.25531 26.1016C5.77614 29.5235 9.22999 31.4219 9.22999 31.4219C8.75665 33.8438 10.1456 36.2367 12.4028 36.8906C12.462 39.2344 14.2222 41.6797 16.7368 41.7656C17.128 41.7633 17.5185 41.711 17.8979 41.6094C20.8193 35.961 28.4739 33.3906 30.8628 32.7109C30.8465 31.8047 31.0107 30.9055 31.3435 30.0703C24.7834 23.6328 6.60449 16.2813 6.11637 23.5703C6.0217 24.5719 6.46026 25.5469 7.25531 26.1016ZM14.6068 37.5C14.9248 37.2578 15.4795 37.5 15.8345 38.0313C16.1895 38.5625 16.2339 39.1953 15.9084 39.4375C15.583 39.6797 15.0431 39.4375 14.6807 38.8985C14.3183 38.3594 14.2888 37.7735 14.6068 37.5ZM11.4858 32.3438C11.826 32.1406 12.351 32.4453 12.6543 33.0235C12.9575 33.6016 12.9205 34.2188 12.5803 34.4219C12.2401 34.625 11.715 34.3203 11.4118 33.75C11.1085 33.1797 11.1455 32.5781 11.4858 32.375V32.3438ZM9.10427 26.9141C9.47406 26.7891 9.9326 27.1953 10.1175 27.8203C10.3024 28.4453 10.1545 29.0547 9.78467 29.1797C9.41488 29.3047 8.95634 28.8985 8.76405 28.2735C8.57175 27.6485 8.72708 27.0703 9.10427 26.9453V26.9141ZM8.13542 23.4844C8.13542 22.8281 8.45344 22.2969 8.875 22.2969C9.29656 22.2969 9.57761 22.8281 9.57761 23.4844C9.57761 24.1406 9.26698 24.6719 8.875 24.6719C8.48302 24.6719 8.13542 24.1406 8.13542 23.4844Z" fill="#D377ED"/>
</svg>
