<svg width="102" height="84" viewBox="0 0 102 84" fill="none" xmlns="http://www.w3.org/2000/svg">
<g filter="url(#filter0_d_19_2)">
<path d="M26.3539 53.1132C23.9879 52.2462 22.0589 50.4822 20.9849 48.2032C19.5379 44.9812 19.9109 41.2342 21.9639 38.3602C24.0549 35.5242 27.5469 34.0842 31.0289 34.6212L33.7649 35.0762V32.0932C33.7889 26.6332 37.5009 21.8792 42.7919 20.5312C48.0989 19.2512 53.5869 21.8092 56.0189 26.6972L56.9519 28.5552L58.8869 27.8692C61.7819 26.8482 64.9919 27.2962 67.4969 29.0712C69.9869 30.8942 71.4609 33.7942 71.4669 36.8802V39.2852H74.6119C78.6059 39.4352 81.7229 42.7952 81.5729 46.7892C81.4299 50.6032 78.3499 53.6512 74.5349 53.7532H70.4879L60.4979 53.7362V58.5402L66.3949 58.5562H74.5349C81.1909 58.3982 86.4589 52.8742 86.3019 46.2182C86.1629 40.3452 81.8109 35.4282 75.9989 34.5752C75.3849 30.8052 73.3149 27.4282 70.2329 25.1712C67.0439 22.9132 63.0619 22.0762 59.2339 22.8582C55.4669 17.0432 48.4419 14.2352 41.7049 15.8522C35.1229 17.5292 30.1989 23.0042 29.2249 29.7272C24.8649 29.8592 20.8029 31.9732 18.1949 35.4692C15.0959 39.7752 14.5319 45.4072 16.7139 50.2412C18.9379 55.0072 23.5969 58.1692 28.8469 58.4742H34.5049L40.4559 58.4902V53.7022L30.4349 53.6842H29.0479C28.1709 53.6282 27.3059 53.4522 26.4769 53.1602L26.3539 53.1132Z" fill="#B92BEC"/>
<path d="M56.6439 67.8062V49.3062H66.2789L50.4769 30.8062L34.6749 49.3062H44.3099V67.8062H56.6439Z" fill="#B92BEC"/>
</g>
<defs>
<filter id="filter0_d_19_2" x="-1.55308" y="-10.0208" width="104.8" height="104.8" filterUnits="userSpaceOnUse" color-interpolation-filters="sRGB">
<feFlood flood-opacity="0" result="BackgroundImageFix"/>
<feColorMatrix in="SourceAlpha" type="matrix" values="0 0 0 0 0 0 0 0 0 0 0 0 0 0 0 0 0 0 127 0" result="hardAlpha"/>
<feOffset/>
<feGaussianBlur stdDeviation="7.7"/>
<feComposite in2="hardAlpha" operator="out"/>
<feColorMatrix type="matrix" values="0 0 0 0 0 0 0 0 0 0 0 0 0 0 0 0 0 0 0.25 0"/>
<feBlend mode="normal" in2="BackgroundImageFix" result="effect1_dropShadow_19_2"/>
<feBlend mode="normal" in="SourceGraphic" in2="effect1_dropShadow_19_2" result="shape"/>
</filter>
</defs>
</svg>
